<svg width="50" height="51" viewBox="0 0 50 51" fill="none" xmlns="http://www.w3.org/2000/svg">
<g clip-path="url(#clip0_288_1356)">
<path fill-rule="evenodd" clip-rule="evenodd" d="M17.2197 4.05084C18.7371 2.50356 20.665 1.44271 22.766 0.998889C24.867 0.555072 27.0494 0.747675 29.0444 1.55298C31.0395 2.35829 32.7601 3.74114 33.9943 5.53125C35.2286 7.32137 35.9227 9.4406 35.9911 11.628C38.7184 10.8262 41.6442 11.1343 44.1533 12.4877C46.6623 13.841 48.5591 16.134 49.4447 18.8846C50.3214 21.6265 50.1185 24.6123 48.8788 27.2044C47.6392 29.7964 45.46 31.7953 42.8018 32.7784C44.3777 35.1689 44.9783 38.0917 44.4762 40.9264C43.9741 43.7612 42.4088 46.2848 40.1126 47.9618C37.8121 49.6565 34.96 50.3821 32.1487 49.9879C29.3375 49.5938 26.7831 48.1102 25.0161 45.8453C23.9158 47.2573 22.4989 48.379 20.8848 49.1157C19.2707 49.8525 17.5067 50.1829 15.7413 50.0789C13.9759 49.975 12.2608 49.4399 10.7405 48.5187C9.2202 47.5974 7.93921 46.317 7.00542 44.7853C5.90681 42.9756 5.34275 40.8814 5.38075 38.7533C5.41875 36.6252 6.05721 34.5533 7.2197 32.7857C4.56808 31.7852 2.3994 29.776 1.16866 27.1798C-0.0620799 24.5836 -0.25922 21.6021 0.618599 18.8608C1.49642 16.1196 3.38097 13.8316 5.87687 12.477C8.37277 11.1223 11.286 10.8063 14.0054 11.5952C14.1027 8.75731 15.2514 6.06261 17.2197 4.05448V4.05084ZM32.8733 26.4471C32.8733 30.855 29.3483 34.425 24.9983 34.425C22.9175 34.4298 20.9198 33.5926 19.4435 32.097C17.9672 30.6014 17.1327 28.5695 17.1233 26.4471C17.1233 22.0393 20.6483 18.4693 24.9983 18.4693C29.3483 18.4693 32.8733 22.0393 32.8733 26.4471Z" fill="#F87676"/>
</g>
<defs>
<clipPath id="clip0_288_1356">
<rect width="50" height="51" fill="white"/>
</clipPath>
</defs>
</svg>
