<svg width="50" height="50" viewBox="0 0 50 50" fill="none" xmlns="http://www.w3.org/2000/svg">
<path fill-rule="evenodd" clip-rule="evenodd" d="M17.1416 3.28509C18.659 1.73782 20.5868 0.676959 22.6879 0.233142C24.7889 -0.210675 26.9712 -0.018072 28.9663 0.787234C30.9613 1.59254 32.6819 2.97539 33.9162 4.76551C35.1505 6.55562 35.8446 8.67485 35.913 10.8622C38.6403 10.0604 41.5661 10.3686 44.0751 11.7219C46.5842 13.0753 48.481 15.3683 49.3666 18.1188C50.2433 20.8607 50.0403 23.8465 48.8007 26.4386C47.5611 29.0307 45.3819 31.0295 42.7237 32.0127C44.2995 34.4032 44.9001 37.3259 44.398 40.1607C43.8959 42.9955 42.3307 45.5191 40.0344 47.1961C37.7339 48.8907 34.8819 49.6163 32.0706 49.2222C29.2593 48.828 26.7049 47.3445 24.938 45.0796C23.8377 46.4916 22.4208 47.6132 20.8067 48.35C19.1926 49.0868 17.4286 49.4171 15.6632 49.3132C13.8977 49.2093 12.1827 48.6742 10.6624 47.7529C9.14208 46.8317 7.86108 45.5512 6.92729 44.0195C5.82868 42.2099 5.26462 40.1157 5.30263 37.9876C5.34063 35.8594 5.97909 33.7876 7.14158 32.0199C4.48996 31.0194 2.32127 29.0103 1.09053 26.4141C-0.140205 23.8179 -0.337345 20.8364 0.540474 18.0951C1.41829 15.3538 3.30285 13.0659 5.79874 11.7112C8.29464 10.3566 11.2079 10.0406 13.9273 10.8294C14.0246 7.99156 15.1732 5.29686 17.1416 3.28873V3.28509ZM32.7951 25.6814C32.7951 30.0892 29.2702 33.6592 24.9201 33.6592C22.8394 33.6641 20.8417 32.8269 19.3654 31.3312C17.889 29.8356 17.0546 27.8037 17.0452 25.6814C17.0452 21.2735 20.5701 17.7035 24.9201 17.7035C29.2702 17.7035 32.7951 21.2735 32.7951 25.6814Z" fill="#C43C4E"/>
</svg>
