<svg width="104" height="88" viewBox="0 0 104 88" fill="none" xmlns="http://www.w3.org/2000/svg">
<path d="M66.4604 60.6415L55.0107 49.1875H73.9062C75.3732 49.1875 76.7801 48.6047 77.8174 47.5674C78.8547 46.5301 79.4375 45.1232 79.4375 43.6562C79.4375 42.1893 78.8547 40.7824 77.8174 39.7451C76.7801 38.7077 75.3732 38.125 73.9062 38.125H55.0073L66.4742 26.6625L66.4838 26.6529L66.4932 26.6432C67.5002 25.5995 68.0571 24.202 68.0438 22.7518C68.0306 21.3015 67.4482 19.9144 66.4222 18.8894C65.3961 17.8643 64.0085 17.2833 62.5583 17.2714C61.108 17.2594 59.711 17.8176 58.6683 18.8257L58.6593 18.8344L58.6504 18.8433L47.1875 30.3018V11.4062C47.1875 9.93927 46.6047 8.53237 45.5674 7.49507C44.5301 6.45776 43.1232 5.875 41.6562 5.875C40.1893 5.875 38.7824 6.45776 37.7451 7.49507C36.7078 8.53238 36.125 9.93927 36.125 11.4062V30.3052L24.6706 18.8464C24.1621 18.323 23.5549 17.9053 22.8841 17.6175C22.2091 17.3279 21.4832 17.1757 20.7488 17.1696C20.0143 17.1636 19.286 17.3039 18.6064 17.5823C17.9268 17.8608 17.3094 18.2718 16.7903 18.7914C16.2712 19.3109 15.8608 19.9287 15.583 20.6086C15.3052 21.2885 15.1656 22.0169 15.1723 22.7513C15.179 23.4858 15.332 24.2115 15.6222 24.8862C15.9104 25.5564 16.3284 26.1629 16.852 26.6709L28.3018 38.125H9.40625C7.93928 38.125 6.53238 38.7077 5.49507 39.7451C4.45775 40.7824 3.875 42.1893 3.875 43.6562C3.875 45.1232 4.45776 46.5301 5.49507 47.5674C6.53237 48.6047 7.93927 49.1875 9.40625 49.1875H28.3052L16.8464 60.6419C16.323 61.1504 15.9053 61.7576 15.6175 62.4284C15.3279 63.1034 15.1757 63.8293 15.1696 64.5637C15.1636 65.2982 15.3039 66.0264 15.5823 66.7061C15.8608 67.3857 16.2718 68.0031 16.7914 68.5222C17.3109 69.0413 17.9287 69.4517 18.6086 69.7295C19.2885 70.0073 20.0169 70.1469 20.7513 70.1402C21.4858 70.1335 22.2115 69.9805 22.8862 69.6903C23.5564 69.4021 24.1629 68.9841 24.6708 68.4605L36.125 57.0107V75.9062C36.125 77.3732 36.7078 78.7801 37.7451 79.8174C38.7824 80.8547 40.1893 81.4375 41.6562 81.4375C43.1232 81.4375 44.5301 80.8547 45.5674 79.8174C46.6047 78.7801 47.1875 77.3732 47.1875 75.9062V57.0073L58.6418 68.466C59.1504 68.9895 59.7576 69.4072 60.4284 69.695C61.1034 69.9846 61.8293 70.1368 62.5637 70.1429C63.2982 70.1489 64.0265 70.0086 64.7061 69.7302C65.3857 69.4517 66.0031 69.0407 66.5222 68.5211C67.0413 68.0016 67.4517 67.3838 67.7295 66.7039C68.0073 66.024 68.1469 65.2956 68.1402 64.5612C68.1335 63.8267 67.9805 63.101 67.6903 62.4263C67.402 61.756 66.984 61.1495 66.4604 60.6415Z" fill="#DFB553" stroke="#FFEBDA" stroke-width="3"/>
<path d="M101.453 39.0504L90.7396 37.9452" stroke="#DFB553" stroke-width="4" stroke-linecap="round"/>
<path d="M82.5 2L77.7525 11.0986" stroke="#DFB553" stroke-width="4" stroke-linecap="round"/>
<path d="M98.3047 17.0708L87.9064 23.3558" stroke="#DFB553" stroke-width="4" stroke-linecap="round"/>
</svg>
