<svg width="35" height="35" viewBox="0 0 35 35" fill="none" xmlns="http://www.w3.org/2000/svg">
<g clip-path="url(#clip0_288_1417)">
<path fill-rule="evenodd" clip-rule="evenodd" d="M12.0538 2.78011C13.116 1.71825 14.4655 0.990214 15.9362 0.685634C17.4069 0.381054 18.9346 0.513232 20.3311 1.06589C21.7276 1.61855 22.932 2.56757 23.796 3.79608C24.66 5.02459 25.1459 6.47896 25.1938 7.98011C27.1029 7.42985 29.1509 7.64133 30.9073 8.57009C32.6636 9.49885 33.9914 11.0725 34.6113 12.9601C35.225 14.8418 35.0829 16.8909 34.2152 18.6698C33.3474 20.4487 31.822 21.8204 29.9613 22.4951C31.0644 24.1357 31.4848 26.1415 31.1333 28.0869C30.7819 30.0323 29.6862 31.7642 28.0788 32.9151C26.4684 34.0781 24.472 34.576 22.5041 34.3056C20.5362 34.0351 18.7482 33.0169 17.5113 31.4626C16.7411 32.4316 15.7493 33.2014 14.6194 33.707C13.4895 34.2126 12.2547 34.4393 11.0189 34.368C9.78311 34.2967 8.58256 33.9295 7.51835 33.2972C6.45414 32.665 5.55745 31.7863 4.90379 30.7351C4.13477 29.4932 3.73992 28.056 3.76653 26.5955C3.79313 25.135 4.24005 23.7132 5.05379 22.5001C3.19766 21.8135 1.67958 20.4347 0.818061 18.6529C-0.043456 16.8712 -0.181454 14.8251 0.433019 12.9438C1.04749 11.0626 2.36668 9.49241 4.11381 8.56275C5.86094 7.6331 7.90022 7.41622 9.80379 7.95761C9.87191 6.01004 10.676 4.16074 12.0538 2.78261V2.78011ZM23.0113 18.1501C23.0113 21.1751 20.5438 23.6251 17.4988 23.6251C16.0423 23.6284 14.6439 23.0539 13.6104 22.0275C12.577 21.0011 11.9929 19.6066 11.9863 18.1501C11.9863 15.1251 14.4538 12.6751 17.4988 12.6751C20.5438 12.6751 23.0113 15.1251 23.0113 18.1501Z" fill="white"/>
</g>
<defs>
<clipPath id="clip0_288_1417">
<rect width="35" height="35" fill="white"/>
</clipPath>
</defs>
</svg>
