<svg width="87" height="77" viewBox="0 0 87 77" fill="none" xmlns="http://www.w3.org/2000/svg">
<g clip-path="url(#clip0_745_1595)">
<path d="M17.4337 11.7988L31.1998 25.565L6.82453 49.9402C5.98698 50.7778 5.53162 51.9171 5.54738 53.0996C5.56313 54.2802 6.04619 55.408 6.88027 56.242C7.71434 57.0761 8.84211 57.5592 10.0227 57.5749C11.2052 57.5907 12.3445 57.1353 13.1821 56.2978L37.5574 31.9225L51.3235 45.6886L51.3244 45.6896C51.947 46.3111 52.7371 46.7414 53.5982 46.9233C54.4597 47.1052 55.3563 47.0305 56.1736 46.7009C56.9915 46.3711 57.6889 45.8024 58.1753 45.0666C58.6616 44.3311 58.9118 43.4668 58.9006 42.5859L58.9006 42.585L58.4547 9.14111L58.4547 9.14017C58.4382 7.96053 57.9552 6.83389 57.1218 6.0005C56.2884 5.1671 55.1618 4.68412 53.9821 4.66765L53.9812 4.66764L20.5373 4.22172L20.5364 4.22171C19.6555 4.21051 18.7912 4.46075 18.0557 4.94701C17.3199 5.43343 16.7512 6.13086 16.4214 6.94867C16.0918 7.76602 16.0171 8.66263 16.1991 9.52415C16.3809 10.3852 16.8112 11.1753 17.4328 11.7979L17.4337 11.7988Z" fill="#4DB05C" stroke="#FFEBDA" stroke-width="3"/>
</g>
<path d="M56.9766 74.6327L54.0685 64.2624" stroke="#4DB05C" stroke-width="4" stroke-linecap="round"/>
<path d="M84.4766 43.3933L74.2701 42.3205" stroke="#4DB05C" stroke-width="4" stroke-linecap="round"/>
<path d="M76.2656 63.6315L66.6 56.2694" stroke="#4DB05C" stroke-width="4" stroke-linecap="round"/>
<defs>
<clipPath id="clip0_745_1595">
<rect width="64" height="62" fill="white"/>
</clipPath>
</defs>
</svg>
