<svg width="65" height="63" viewBox="0 0 65 63" fill="none" xmlns="http://www.w3.org/2000/svg">
<g clip-path="url(#clip0_288_1387)">
<path d="M15.914 52.3385C15.4394 52.813 14.7907 53.0746 14.1104 53.0655C13.4302 53.0564 12.7742 52.7775 12.2868 52.2901C11.7994 51.8027 11.5205 51.1467 11.5114 50.4665C11.5023 49.7862 11.7639 49.1375 12.2384 48.6629L34.308 26.5933L21.4435 13.7288C21.0806 13.3653 20.8307 12.9051 20.7254 12.4066C20.6201 11.908 20.6642 11.3933 20.852 10.9276C21.0398 10.4618 21.363 10.0659 21.7806 9.78977C22.1983 9.51364 22.6918 9.36971 23.1988 9.37615L52.2164 9.76306C52.8961 9.77254 53.5515 10.0514 54.0385 10.5384C54.5255 11.0255 54.8044 11.6808 54.8138 12.3605L55.2008 41.3782C55.2072 41.8851 55.0633 42.3786 54.7871 42.7963C54.511 43.2139 54.1151 43.5371 53.6493 43.7249C53.1836 43.9127 52.6689 43.9568 52.1703 43.8515C51.6718 43.7462 51.2117 43.4963 50.8481 43.1334L37.9836 30.2689L15.914 52.3385Z" fill="#4DB05C"/>
</g>
<defs>
<clipPath id="clip0_288_1387">
<rect width="64" height="62.8148" fill="white" transform="translate(0.5 0.0925903)"/>
</clipPath>
</defs>
</svg>
