<svg width="321" height="328" viewBox="0 0 321 328" fill="none" xmlns="http://www.w3.org/2000/svg">
<path d="M68.7742 15.871L0 248.645L84.6452 272.452C87.2903 264.516 108.452 230.129 142.839 243.355C170.348 253.935 171.935 286.559 169.29 301.548L251.29 328L320.065 95.2258L301.548 63.4839L269.806 79.3548L251.29 47.6129L219.548 63.4839L203.677 31.7419L169.29 47.6129L150.774 15.871L119.032 31.7419L100.516 0L68.7742 15.871Z" fill="#D70B17"/>
<path d="M77.3971 115.729V214.478C77.3971 219.064 73.6198 222.572 69.3029 222.572C64.7162 222.572 61.2087 219.064 61.2087 214.478V107.634C61.2087 103.048 64.7162 99.5401 69.3029 99.5401H150.245C169.401 99.5401 185.32 115.189 185.32 134.615V214.478C185.32 219.064 181.542 222.572 177.225 222.572C172.639 222.572 169.131 219.064 169.131 214.478V134.615C169.131 124.093 160.767 115.729 150.245 115.729H131.358V214.478C131.358 219.064 127.581 222.572 123.264 222.572C118.677 222.572 115.17 219.064 115.17 214.478V115.729H77.3971ZM199.295 276.533C194.708 276.533 191.201 273.026 191.201 268.439C191.201 263.852 194.708 260.345 199.295 260.345C207.659 260.345 214.944 255.218 217.372 246.854L227.085 214.478L195.518 108.983C194.168 104.666 196.597 100.08 200.914 98.7307C205.231 97.6515 209.547 100.08 210.896 104.127L235.449 186.418L260.271 104.127C261.35 100.08 265.937 97.6515 270.254 98.7307C274.571 100.08 276.999 104.666 275.65 108.983L243.273 216.906L233.021 251.441C230.592 259.266 226.275 265.201 220.34 269.518C214.134 274.105 207.119 276.533 199.295 276.533Z" fill="white"/>
</svg>
