<svg width="150" height="124" viewBox="0 0 150 124" fill="none" xmlns="http://www.w3.org/2000/svg">
<path d="M120.12 103.241L123.952 104.495C124.631 104.714 125.068 105.397 124.99 106.122C123.93 115.663 116.045 123.081 106.472 123.081H45.4155C38.8286 123.081 33.0429 119.569 29.729 114.27C29.0189 113.133 29.9612 111.679 31.254 111.922C33.6757 112.371 36.1429 112.6 38.6283 112.6C60.9107 112.6 79.0371 94.4108 79.0371 72.0449C79.0371 69.6783 78.8323 67.3116 78.4362 65.0199C78.2268 63.8179 77.9674 62.6346 77.6578 61.4746C77.2937 60.1089 78.7503 59.0145 79.9111 59.7815C85.3053 63.3501 91.7055 65.3519 98.3516 65.3519C106.855 65.3519 114.953 62.1575 121.162 56.3626C121.239 56.2877 121.317 56.2176 121.394 56.1381C123.329 58.79 124.612 61.9751 124.995 65.4361C125.077 66.1611 124.635 66.8393 123.957 67.0591L120.129 68.3125C119.369 68.5604 118.863 69.262 118.863 70.0618V101.497C118.859 102.287 119.364 102.989 120.12 103.241Z" fill="#F77600"/>
<path d="M150 60.7683V110.776C150 110.869 149.959 110.949 149.891 111.005C149.786 111.08 149.668 111.099 149.549 111.061L125.71 103.264L121.176 101.782C121.044 101.74 120.953 101.623 120.953 101.496V70.0617C120.953 69.9307 121.044 69.8185 121.181 69.7717L125.71 68.2891L149.44 60.5251L149.568 60.483C149.686 60.4409 149.795 60.4689 149.886 60.5391C149.964 60.5952 150 60.6747 150 60.7683Z" fill="#F77600"/>
<path d="M77.2442 72.04C77.2442 93.3863 59.919 110.752 38.6244 110.752C31.8509 110.752 25.1957 108.975 19.3736 105.612C19.1051 105.458 18.8365 105.299 18.5725 105.131C18.2356 104.925 17.8942 104.714 17.5619 104.485L27.6493 83.6439L42.2069 91.0758L48.0836 78.9388L33.526 71.5069L34.6276 69.2291C35.2604 67.9242 36.0752 66.8344 37.0721 65.9738C38.0827 65.0805 39.1706 64.4304 40.3451 64.0235C41.5605 63.6072 42.8123 63.4529 44.1005 63.5464C45.4343 63.6353 46.7407 64.0048 48.0108 64.6549L56.9237 69.2057L62.8004 57.0687L53.8875 52.5178C51.0197 51.0492 48.0517 50.2401 44.9836 50.0857C41.9337 49.8987 38.9794 50.2869 36.1298 51.2457C33.3303 52.1858 30.7447 53.6731 28.3959 55.6983C26.0697 57.7375 24.1897 60.2304 22.7695 63.1769L7.43354 94.8503C2.69028 88.3163 0 80.3559 0 72.04C0 50.6938 17.3252 33.3277 38.6244 33.3277C57.4381 33.3277 73.4386 46.7884 76.6661 65.3378C77.053 67.5266 77.2442 69.7763 77.2442 72.04Z" fill="#F77600"/>
<path d="M98.3477 0.574036C81.0589 0.574036 66.9975 14.624 66.9975 31.8872C66.9975 37.3968 68.4496 42.8129 71.1945 47.5555C71.372 47.8642 71.5541 48.1635 71.7453 48.4629C77.4536 57.5785 87.5501 63.2004 98.3477 63.2004C106.327 63.2004 113.929 60.2024 119.752 54.7676C119.852 54.674 119.947 54.5852 120.043 54.4916C126.184 48.6125 129.702 40.3995 129.702 31.8872C129.702 14.624 115.636 0.574036 98.3477 0.574036ZM94.9336 25.0493L101.093 24.7359C101.625 24.7079 102.13 24.9745 102.422 25.4375L105.763 30.746C106.054 31.209 106.082 31.7937 105.836 32.2801L103.027 37.8973C102.781 38.3837 102.303 38.7017 101.771 38.7298L95.6073 39.0432C95.0747 39.0712 94.5694 38.8046 94.2781 38.3416L90.9369 33.0331C90.6455 32.5701 90.6182 31.9854 90.864 31.499L93.6727 25.8818C93.9185 25.3907 94.401 25.0774 94.9336 25.0493Z" fill="#F77600"/>
</svg>
