<svg width="85" height="93" viewBox="0 0 85 93" fill="none" xmlns="http://www.w3.org/2000/svg">
<path d="M49.5017 49.425C56.4965 49.424 62.1824 43.7926 62.1824 36.8185C62.1824 29.8439 56.4955 24.2121 49.4999 24.2121C42.5043 24.2121 36.8174 29.8439 36.8174 36.8185L36.8174 36.8254C36.8326 40.1773 38.1768 43.3862 40.5551 45.7483C42.9329 48.11 46.1503 49.4322 49.5017 49.425ZM49.5017 49.425C49.5011 49.425 49.5005 49.425 49.4999 49.425V47.925L49.5033 49.425C49.5028 49.425 49.5022 49.425 49.5017 49.425ZM75.9988 18.7108C79.2175 20.4129 81.6509 23.2964 82.7878 26.7553C83.912 30.2024 83.6517 33.9565 82.0621 37.2151C80.4725 40.4737 77.6782 42.9866 74.2696 44.2225L72.4652 44.8768L73.5362 46.4697C75.5561 49.4738 76.326 53.1469 75.6824 56.7094C75.0388 60.2718 73.0324 63.4433 70.0889 65.5508L70.084 65.5544C67.13 67.6877 63.4677 68.6012 59.8578 68.105C56.2479 67.6088 52.9679 65.7411 50.699 62.8899L49.5246 61.4141L48.351 62.8906C46.9381 64.6681 45.1187 66.0801 43.0461 67.0077C40.9735 67.9352 38.7083 68.351 36.4414 68.2202C34.1745 68.0894 31.9722 67.4158 30.02 66.256C28.0682 65.0964 26.4235 63.4849 25.2245 61.5571C23.8168 59.2832 23.0941 56.6519 23.1428 53.978C23.1915 51.3036 24.0099 48.6998 25.5 46.4785L26.561 44.8968L24.7747 44.236C21.3732 42.9777 18.5911 40.4508 17.0123 37.1856C15.4334 33.9204 15.1805 30.1706 16.3066 26.723C17.4327 23.2753 19.8503 20.3978 23.0521 18.6941C26.2539 16.9904 29.9912 16.5929 33.4797 17.5851L35.3222 18.1091L35.3891 16.1948C35.514 12.6234 36.9885 9.23219 39.5151 6.70502L39.7399 6.4802C41.6516 4.65236 44.0401 3.39668 46.6342 2.85944C49.3312 2.30091 52.1326 2.5433 54.6935 3.55675C57.2544 4.5702 59.463 6.31047 61.0474 8.56327C62.6317 10.8161 63.5227 13.4831 63.6105 16.2358L63.672 18.1635L65.5252 17.6293C69.0248 16.6206 72.7792 17.0083 75.9988 18.7108Z" fill="#F87676" stroke="#FFEBDA" stroke-width="3"/>
<path d="M2 63.9852L12.3069 60.8598" stroke="#F87676" stroke-width="4" stroke-linecap="round"/>
<path d="M33.8086 90.8197L34.6667 80.5929" stroke="#F87676" stroke-width="4" stroke-linecap="round"/>
<path d="M13.4023 83.0363L20.5597 73.218" stroke="#F87676" stroke-width="4" stroke-linecap="round"/>
</svg>
