<svg width="76" height="94" viewBox="0 0 76 94" fill="none" xmlns="http://www.w3.org/2000/svg">
<path d="M7.59766 43.3334C15.1977 28.1334 36.9843 20.5334 32.931 30.6667C27.8643 43.3334 -2.53568 66.1334 15.1977 73.7334C22.0022 76.6518 30.6763 76.0134 38.7779 73.48M38.7779 73.48C51.7891 69.4014 63.331 60.4435 63.331 53.4667C63.331 40.8 45.5977 45.8667 40.531 63.6C39.4873 67.2582 38.8691 70.5971 38.7779 73.48ZM38.7779 73.48C38.4233 84.5406 45.7598 88.8472 65.8643 78.8" stroke="#FFEBDA" stroke-width="9" stroke-linecap="round"/>
<path d="M7.59375 43.3334C15.1937 28.1334 36.9804 20.5334 32.9271 30.6667C27.8604 43.3334 -2.53958 66.1334 15.1937 73.7334C21.9983 76.6518 30.6724 76.0134 38.774 73.4801M38.774 73.4801C51.7852 69.4014 63.3271 60.4435 63.3271 53.4667C63.3271 40.8001 45.5937 45.8667 40.5271 63.6001C39.4833 67.2582 38.8652 70.5971 38.774 73.4801ZM38.774 73.4801C38.4193 84.5406 45.7559 88.8473 65.8604 78.8001" stroke="#6F64FF" stroke-width="5" stroke-linecap="round"/>
<path d="M63.2461 22.1098L53.7474 27.1867" stroke="#6F64FF" stroke-width="4" stroke-linecap="round"/>
<path d="M26.8086 2L27.9631 12.1976" stroke="#6F64FF" stroke-width="4" stroke-linecap="round"/>
<path d="M48.3398 5.65088L43.2364 16.6772" stroke="#6F64FF" stroke-width="4" stroke-linecap="round"/>
</svg>
