<svg width="64" height="65" viewBox="0 0 64 65" fill="none" xmlns="http://www.w3.org/2000/svg">
<path d="M34 7.5C34 6.70435 33.6839 5.94129 33.1213 5.37868C32.5587 4.81607 31.7956 4.5 31 4.5C30.2044 4.5 29.4413 4.81607 28.8787 5.37868C28.3161 5.94129 28 6.70435 28 7.5V24.26L17.564 13.82C17.2871 13.5336 16.956 13.3052 16.5899 13.1482C16.2238 12.9911 15.8301 12.9085 15.4318 12.9053C15.0334 12.902 14.6384 12.9781 14.2698 13.1291C13.9012 13.2801 13.5664 13.503 13.2848 13.7848C13.0033 14.0667 12.7807 14.4017 12.63 14.7705C12.4793 15.1392 12.4036 15.5343 12.4073 15.9326C12.4109 16.331 12.4938 16.7246 12.6512 17.0905C12.8086 17.4565 13.0373 17.7874 13.324 18.064L23.756 28.5H7C6.20435 28.5 5.44129 28.8161 4.87868 29.3787C4.31607 29.9413 4 30.7044 4 31.5C4 32.2956 4.31607 33.0587 4.87868 33.6213C5.44129 34.1839 6.20435 34.5 7 34.5H23.76L13.32 44.936C13.0336 45.2129 12.8052 45.544 12.6482 45.9101C12.4911 46.2762 12.4085 46.6699 12.4053 47.0682C12.402 47.4666 12.4781 47.8616 12.6291 48.2302C12.7801 48.5988 13.003 48.9336 13.2848 49.2152C13.5667 49.4967 13.9017 49.7193 14.2705 49.87C14.6392 50.0207 15.0343 50.0964 15.4326 50.0927C15.831 50.0891 16.2246 50.0062 16.5905 49.8488C16.9565 49.6914 17.2874 49.4627 17.564 49.176L28 38.744V55.5C28 56.2956 28.3161 57.0587 28.8787 57.6213C29.4413 58.1839 30.2044 58.5 31 58.5C31.7956 58.5 32.5587 58.1839 33.1213 57.6213C33.6839 57.0587 34 56.2956 34 55.5V38.74L44.436 49.18C44.7129 49.4664 45.044 49.6948 45.4101 49.8518C45.7762 50.0089 46.1699 50.0915 46.5682 50.0947C46.9666 50.098 47.3616 50.0219 47.7302 49.8709C48.0988 49.7199 48.4336 49.497 48.7152 49.2152C48.9967 48.9333 49.2193 48.5983 49.37 48.2295C49.5207 47.8608 49.5964 47.4657 49.5927 47.0674C49.5891 46.669 49.5062 46.2754 49.3488 45.9095C49.1914 45.5435 48.9627 45.2126 48.676 44.936L38.244 34.5H55C55.7956 34.5 56.5587 34.1839 57.1213 33.6213C57.6839 33.0587 58 32.2956 58 31.5C58 30.7044 57.6839 29.9413 57.1213 29.3787C56.5587 28.8161 55.7956 28.5 55 28.5H38.24L48.68 18.064C49.2262 17.4979 49.5282 16.74 49.521 15.9534C49.5138 15.1668 49.198 14.4145 48.6415 13.8585C48.085 13.3026 47.3324 12.9874 46.5458 12.981C45.7592 12.9745 45.0015 13.2773 44.436 13.824L34 24.256V7.5Z" fill="#DFB553"/>
</svg>
